<?xml version="1.0" standalone="no"?>
<!DOCTYPE svg PUBLIC "-//W3C//DTD SVG 20010904//EN"
 "http://www.w3.org/TR/2001/REC-SVG-20010904/DTD/svg10.dtd">
<svg version="1.0" xmlns="http://www.w3.org/2000/svg"
 width="700.000000pt" height="700.000000pt" viewBox="0 0 700.000000 700.000000"
 preserveAspectRatio="xMidYMid meet">
<metadata>
Created by potrace 1.14, written by Peter Selinger 2001-2017
</metadata>
<g transform="translate(0.000000,700.000000) scale(0.100000,-0.100000)"
fill="#000000" stroke="none">
<path d="M4165 6329 c-49 -9 -102 -20 -117 -23 -43 -10 -192 -66 -203 -77 -5
-5 -14 -9 -20 -9 -18 0 -192 -96 -275 -152 -71 -48 -229 -165 -240 -177 -3 -3
-25 -24 -50 -45 -181 -157 -419 -418 -576 -631 -16 -22 -34 -45 -39 -51 -22
-23 -275 -408 -275 -418 0 -3 -16 -30 -35 -60 -19 -30 -35 -58 -35 -61 0 -4
-16 -33 -35 -66 -19 -32 -32 -59 -28 -59 3 0 0 -6 -6 -13 -18 -23 -96 -186
-155 -328 -31 -74 -61 -142 -67 -153 -6 -10 -12 -26 -14 -35 -2 -9 -23 -68
-45 -131 -38 -104 -50 -141 -82 -250 -8 -29 -25 -45 -101 -95 -101 -65 -101
-65 -196 -146 -128 -108 -244 -243 -336 -390 -22 -35 -112 -216 -124 -249 -8
-19 -19 -48 -26 -65 -15 -32 -62 -211 -69 -260 -7 -50 -20 -139 -22 -157 -1
-10 -2 -57 -3 -105 l-2 -88 -74 -59 c-57 -45 -74 -64 -71 -80 5 -36 35 -30 91
18 l53 46 7 -53 c4 -28 9 -61 11 -72 3 -11 7 -38 9 -59 3 -21 8 -42 10 -46 2
-4 6 -20 9 -36 10 -57 81 -261 98 -281 6 -7 8 -13 4 -13 -3 0 6 -19 21 -43 14
-23 26 -44 26 -47 -1 -3 16 -34 37 -70 192 -329 518 -596 884 -726 l78 -27
-40 -34 c-29 -23 -39 -39 -35 -52 9 -35 29 -30 89 19 l59 48 65 -13 c173 -36
410 -42 580 -15 151 24 182 31 198 43 6 5 12 7 12 3 0 -3 37 8 83 25 45 16 87
31 92 32 51 13 344 179 365 206 3 4 23 20 45 36 64 47 182 164 248 245 46 57
149 204 152 217 0 1 60 4 134 7 73 4 152 8 175 11 22 2 66 7 96 10 30 3 66 7
80 10 14 2 36 7 50 10 14 2 37 7 51 9 122 20 310 101 376 162 57 54 77 97 77
169 1 62 -23 118 -66 156 -17 15 -18 40 -18 318 0 166 4 300 8 297 22 -14 87
-20 187 -20 89 1 121 5 170 24 141 54 249 162 294 296 21 64 25 173 8 232 -42
142 -172 263 -355 333 l-24 9 42 47 c92 105 174 266 189 373 8 58 7 195 -1
240 -35 192 -134 329 -297 412 -49 25 -147 58 -174 58 -40 0 -45 12 -46 100
-1 47 -6 101 -12 120 -54 183 -255 376 -460 442 -67 21 -69 23 -69 55 -1 18
-1 89 -1 158 0 69 0 155 1 193 l0 67 53 25 c73 34 161 124 197 202 32 71 54
168 37 168 -8 0 -8 3 0 11 15 15 -12 123 -44 178 -99 169 -328 247 -588 200z"/>
<path d="M5430 5736 c-19 -7 -38 -14 -42 -15 -5 0 -9 -1 -10 -2 -2 0 -10 -2
-18 -4 -21 -6 -117 -32 -180 -50 -8 -2 -85 -24 -170 -48 -85 -25 -162 -46
-170 -48 -24 -7 -37 -23 -33 -41 8 -28 26 -27 129 4 54 16 106 31 114 33 18 4
87 23 235 65 134 38 144 40 175 47 14 3 31 10 38 16 17 13 15 44 -4 51 -20 8
-22 7 -64 -8z"/>
<path d="M4837 5383 c-4 -3 -7 -17 -7 -30 0 -18 5 -23 28 -23 242 -4 627 1
634 8 6 6 8 18 6 28 -3 18 -21 19 -329 22 -179 1 -328 -1 -332 -5z"/>
<path d="M1955 5362 c-16 -11 -70 -83 -88 -117 -28 -52 -38 -79 -51 -130 -12
-47 -16 -52 -74 -82 -121 -64 -226 -197 -243 -308 -1 -5 -5 -21 -10 -34 -5
-13 -10 -59 -11 -104 -1 -66 -5 -83 -21 -96 -59 -49 -147 -209 -162 -292 -3
-18 -8 -36 -11 -41 -17 -27 -25 -297 -12 -408 16 -137 43 -237 68 -250 15 -8
24 -6 39 9 18 18 19 23 5 73 -7 30 -16 70 -19 89 -2 19 -9 61 -14 94 -16 99
-6 308 18 403 22 89 46 140 97 209 l32 43 13 -31 c33 -81 129 -145 205 -136
104 11 161 122 117 228 -14 32 -66 77 -101 86 -37 10 -111 10 -146 0 l-29 -8
6 63 c8 91 15 117 44 170 39 71 120 150 175 171 12 4 16 1 16 -11 -3 -90 64
-202 132 -220 136 -35 248 97 185 218 -28 54 -139 131 -165 115 -6 -4 -10 -2
-10 3 0 5 -12 7 -26 4 -25 -5 -26 -3 -19 29 10 45 50 124 91 177 21 27 31 50
27 60 -7 19 -23 32 -38 32 -5 0 -15 -4 -20 -8z m18 -388 c106 -54 109 -149 5
-168 -19 -3 -33 3 -50 22 -29 32 -37 50 -47 115 l-8 47 34 0 c19 0 48 -7 66
-16z m-251 -490 c27 -8 50 -52 45 -89 -6 -43 -12 -52 -43 -59 -43 -11 -109 27
-133 78 -12 23 -21 47 -21 53 0 25 93 36 152 17z"/>
<path d="M4794 5215 c-11 -28 3 -40 62 -57 387 -110 596 -168 607 -168 7 0 18
5 25 12 19 19 -4 44 -55 58 -26 7 -86 24 -133 37 -90 26 -166 48 -290 82 -41
11 -97 27 -125 35 -63 20 -84 20 -91 1z"/>
</g>
</svg>
